<svg width="38" height="38" viewBox="0 0 38 38" fill="none" xmlns="http://www.w3.org/2000/svg">
<g filter="url(#filter0_d_16_165)">
<rect x="4" width="30" height="30" rx="5" fill="white"/>
<g clip-path="url(#clip0_16_165)">
<path d="M16.8475 17.6505L16.5167 22.3039C16.99 22.3039 17.195 22.1005 17.4409 21.8564L19.66 19.7355L24.2583 23.103C25.1017 23.573 25.6958 23.3255 25.9233 22.3272L28.9417 8.18385L28.9425 8.18302C29.21 6.93635 28.4917 6.44885 27.67 6.75469L9.92836 13.5472C8.71753 14.0172 8.73586 14.6922 9.72253 14.998L14.2584 16.4089L24.7942 9.81635C25.29 9.48802 25.7408 9.66969 25.37 9.99802L16.8475 17.6505Z" fill="#17181C"/>
</g>
</g>
<defs>
<filter id="filter0_d_16_165" x="0" y="0" width="38" height="38" filterUnits="userSpaceOnUse" color-interpolation-filters="sRGB">
<feFlood flood-opacity="0" result="BackgroundImageFix"/>
<feColorMatrix in="SourceAlpha" type="matrix" values="0 0 0 0 0 0 0 0 0 0 0 0 0 0 0 0 0 0 127 0" result="hardAlpha"/>
<feOffset dy="4"/>
<feGaussianBlur stdDeviation="2"/>
<feComposite in2="hardAlpha" operator="out"/>
<feColorMatrix type="matrix" values="0 0 0 0 0 0 0 0 0 0 0 0 0 0 0 0 0 0 0.25 0"/>
<feBlend mode="normal" in2="BackgroundImageFix" result="effect1_dropShadow_16_165"/>
<feBlend mode="normal" in="SourceGraphic" in2="effect1_dropShadow_16_165" result="shape"/>
</filter>
<clipPath id="clip0_16_165">
<rect width="20" height="20" fill="white" transform="translate(9 5)"/>
</clipPath>
</defs>
</svg>
