<svg xmlns="http://www.w3.org/2000/svg" width="1728" height="1728" viewBox="0 0 1728 1728"><path d="M1497.6 1555.2h-1248V1440h1248v115.2zm-624-1382.4L171.053 672h125.472l577.018-404.947L1449.408 672H1574.4L873.6 172.8zm67.2 1064.064V759.936c22.08-9.6 39.937-27.455 49.536-49.535H756.864c9.6 22.08 27.456 39.937 49.536 49.536v476.93c-22.08 9.6-39.937 27.455-49.536 49.535h233.472c-9.6-22.08-27.456-39.936-49.536-49.536zm-345.6 0V759.936c22.08-9.6 39.936-27.455 49.536-49.535H411.264c9.6 22.08 27.456 39.937 49.536 49.536v476.93c-22.08 9.6-39.936 27.455-49.536 49.535h233.473c-9.6-22.08-27.457-39.936-49.537-49.536zm691.2 0V759.936c22.08-9.6 39.936-27.455 49.535-49.535h-233.472c9.6 22.08 27.456 39.937 49.536 49.536v476.93c-22.08 9.6-39.937 27.455-49.537 49.535h233.472c-9.6-22.08-27.455-39.936-49.535-49.536zM1353.6 672l-480-345.6-480 345.6h960zm48 652.8h-1056v76.8h1056v-76.8z"/></svg>